<?xml version="1.0" encoding="UTF-8"?>
<svg version="1.1" xmlns="http://www.w3.org/2000/svg" width="225" height="225">
<path d="M0 0 C0.825 0.845625 1.65 1.69125 2.5 2.5625 C5.3973271 5.38739392 6.41835579 5.39022965 10.3125 5.875 C17.59854243 6.95223746 21.23226716 10.43867552 25.6484375 16.12109375 C35.44142932 30.8602921 37.37475754 49.66257288 37.37060547 66.89575195 C37.37504971 68.96059617 37.41174029 71.02341182 37.44921875 73.08789062 C37.4550772 74.42186785 37.45905309 75.75585499 37.4609375 77.08984375 C37.46915527 78.27441162 37.47737305 79.45897949 37.48583984 80.67944336 C36.90105459 84.67625954 35.39330164 86.79189091 33 90 C32.092529 91.9974645 31.23637342 94.01917689 30.4375 96.0625 C28.11066731 101.99020164 25.88913147 106.56885326 20.9375 110.6875 C15.81427186 114.85190662 15.81427186 114.85190662 14 121 C13.6833992 126.28627394 13.94989534 130.07974882 16 135 C15.5173453 138.84167049 14.22429744 141.96103947 12.5625 145.4375 C6.81561528 157.49738047 5.56518295 171.83229394 9.6875 184.75 C10.40465081 186.52267559 11.17286107 188.27589872 12 190 C12.59554687 191.24136719 12.59554687 191.24136719 13.203125 192.5078125 C15.64365383 197.18806715 18.58551339 201.00017282 22 205 C22 205.66 22 206.32 22 207 C22.8353125 207.3403125 22.8353125 207.3403125 23.6875 207.6875 C26.63246684 209.35896766 28.68156544 211.55276352 31 214 C24.33316176 220.66683824 -3.37162036 217.24605186 -13.3125 217.25 C-34.56156036 217.20536275 -55.60691415 215.68985498 -76.6875 213.0625 C-77.97043945 212.90491211 -79.25337891 212.74732422 -80.57519531 212.58496094 C-95.16412472 210.65651702 -95.16412472 210.65651702 -101 208 C-107.46040917 199.19035113 -105.71864449 184.65788948 -104.1875 174.4375 C-102.51544438 165.92935302 -99.16752703 160.88640453 -92 156 C-88.44680173 154.26864532 -84.77982106 153.13960083 -81 152 C-60.84444138 146.72191522 -60.84444138 146.72191522 -46 133 C-43.89318003 127.34005663 -44.85577876 120.5227211 -47 115 C-49.05506291 112.28917581 -51.41512982 110.19223167 -54 108 C-57.57443521 104.89091579 -58.94827254 102.14871646 -60.5 97.6875 C-61.84010505 93.99293345 -63.10798828 90.5270876 -65.1875 87.1875 C-73.44411981 72.66723758 -69.10427939 47.3508439 -65.03125 31.9140625 C-60.20515069 18.2766758 -52.1329102 7.33230244 -39 1 C-26.85829019 -3.98572625 -12.26706894 -5.33533478 0 0 Z M-25 157 C-25.07053754 160.10365159 -24.42617878 162.20745349 -22.9597168 164.93457031 C-19.63285416 171.21490872 -19.94724187 175.26555871 -21.75 182 C-24.74501664 192.76494892 -24.74501664 192.76494892 -22.86328125 203.41015625 C-20.49890397 205.9293794 -18.80182807 207.71936017 -15.5 208.875 C-11.32219978 207.41276992 -9.05405933 204.88292279 -7 201 C-5.34318698 193.61285622 -7.73467281 185.9757842 -9.66357422 178.83837891 C-10.86576729 174.28894436 -11.3395348 171.40470705 -9.02734375 167.25390625 C-8.66769531 166.69574219 -8.30804688 166.13757813 -7.9375 165.5625 C-6.18333893 162.53786199 -5.15997467 160.5467736 -6 157 C-8.03581001 154.04479192 -9.58114368 152.32071797 -13.16015625 151.51171875 C-18.69005134 151.18860301 -21.82867169 152.1372966 -25 157 Z " fill="#060606" transform="translate(113,5)"/>
<path d="M0 0 C1.56125851 0.00399299 3.12251789 0.01875614 4.68359375 0.04296875 C5.47701172 0.04361328 6.27042969 0.04425781 7.08789062 0.04492188 C12.98083853 0.09021353 12.98083853 0.09021353 14.12109375 1.23046875 C14.19314886 2.91655841 14.20495443 4.60547534 14.18359375 6.29296875 C14.17457031 7.21207031 14.16554687 8.13117188 14.15625 9.078125 C14.14464844 9.78839844 14.13304687 10.49867188 14.12109375 11.23046875 C17.23718153 12.78991579 17.23718153 12.78991579 21.12109375 13.23046875 C23.85325257 11.60594188 25.9644862 9.55095225 28.12109375 7.23046875 C32.03747828 8.55875301 34.46940685 10.17055642 37.37109375 13.10546875 C38.056875 13.78351563 38.74265625 14.4615625 39.44921875 15.16015625 C41.17571384 17.29810578 42.00962309 18.48271693 42.12109375 21.23046875 C40.87109375 22.7578125 40.87109375 22.7578125 39.12109375 24.16796875 C37.43176854 25.64704983 37.43176854 25.64704983 36.12109375 27.23046875 C36.18734647 30.14558852 36.83586014 31.66000152 38.12109375 34.23046875 C40.4446336 34.66032569 40.4446336 34.66032569 43.12109375 34.79296875 C48.02491054 35.13428554 48.02491054 35.13428554 49.12109375 36.23046875 C49.2209635 39.07381923 49.25987256 41.88744038 49.24609375 44.73046875 C49.24996094 45.52839844 49.25382812 46.32632813 49.2578125 47.1484375 C49.24770142 53.10386108 49.24770142 53.10386108 48.12109375 54.23046875 C45.57139989 54.43282541 43.02416411 54.54962121 40.46875 54.65625 C37.97169366 54.99078849 37.97169366 54.99078849 36.80078125 57.15234375 C35.94166605 59.77906378 35.97409434 60.70707005 37.12109375 63.23046875 C37.98734375 64.05546875 38.85359375 64.88046875 39.74609375 65.73046875 C40.92171875 66.96796875 40.92171875 66.96796875 42.12109375 68.23046875 C41.9653673 70.98348987 41.29073949 72.05359595 39.37890625 74.046875 C38.67507812 74.62308594 37.97125 75.19929688 37.24609375 75.79296875 C34.26015247 78.25789944 34.26015247 78.25789944 31.48828125 80.953125 C30.81152344 81.58541016 30.81152344 81.58541016 30.12109375 82.23046875 C27.53967039 82.06912979 26.36627668 81.43186901 24.37109375 79.79296875 C23.12109375 78.23046875 23.12109375 78.23046875 23.12109375 76.23046875 C18.99135747 76.79786743 18.99135747 76.79786743 15.12109375 78.23046875 C14.69148154 80.28978407 14.69148154 80.28978407 14.55859375 82.66796875 C14.21442708 87.04380208 14.21442708 87.04380208 13.12109375 89.23046875 C10.30853094 89.25731187 7.49622134 89.27723063 4.68359375 89.29296875 C3.47993164 89.30553711 3.47993164 89.30553711 2.25195312 89.31835938 C0.20814154 89.32698305 -1.83574527 89.28275025 -3.87890625 89.23046875 C-5.61847283 87.49090217 -5.25081011 85.03680655 -5.44140625 82.66796875 C-5.52519531 81.65605469 -5.60898438 80.64414063 -5.6953125 79.6015625 C-5.78619141 78.42787109 -5.78619141 78.42787109 -5.87890625 77.23046875 C-9.0855604 76.19868036 -9.0855604 76.19868036 -12.87890625 76.23046875 C-14.69415842 77.65704339 -16.00991369 79.15753311 -17.421875 80.98046875 C-17.90269531 81.39296875 -18.38351563 81.80546875 -18.87890625 82.23046875 C-20.93359375 82.0625 -20.93359375 82.0625 -22.87890625 81.23046875 C-24.24964411 79.59442679 -25.57945881 77.92368814 -26.87890625 76.23046875 C-28.24015625 75.27140625 -28.24015625 75.27140625 -29.62890625 74.29296875 C-31.87890625 72.23046875 -31.87890625 72.23046875 -32.44140625 69.23046875 C-31.76789064 65.63838549 -30.75103216 64.42680033 -27.87890625 62.23046875 C-27.21890625 62.23046875 -26.55890625 62.23046875 -25.87890625 62.23046875 C-27.45292232 58.42567265 -27.45292232 58.42567265 -29.87890625 55.23046875 C-32.30479098 54.52221219 -34.43146967 54.35856059 -36.953125 54.30078125 C-38.87890625 54.23046875 -38.87890625 54.23046875 -39.87890625 53.23046875 C-39.978776 50.38711827 -40.01768506 47.57349712 -40.00390625 44.73046875 C-40.00777344 43.93253906 -40.01164062 43.13460937 -40.015625 42.3125 C-40.00551392 36.35707642 -40.00551392 36.35707642 -38.87890625 35.23046875 C-37.19281659 35.15841364 -35.50389966 35.14660807 -33.81640625 35.16796875 C-32.89730469 35.17699219 -31.97820312 35.18601563 -31.03125 35.1953125 C-30.32097656 35.20691406 -29.61070312 35.21851563 -28.87890625 35.23046875 C-28.73453125 34.46734375 -28.59015625 33.70421875 -28.44140625 32.91796875 C-27.87890625 30.23046875 -27.87890625 30.23046875 -26.87890625 27.23046875 C-27.68328125 26.65296875 -28.48765625 26.07546875 -29.31640625 25.48046875 C-32.65130148 22.55226806 -32.65130148 22.55226806 -32.87890625 19.23046875 C-31.62109375 17.23046875 -31.62109375 17.23046875 -29.75390625 15.23046875 C-29.11066406 14.53953125 -28.46742188 13.84859375 -27.8046875 13.13671875 C-25.62357994 10.97773196 -23.36124824 9.03580838 -20.87890625 7.23046875 C-16.09629755 10.02032382 -16.09629755 10.02032382 -14.00390625 12.04296875 C-11.71717235 13.62834304 -11.71717235 13.62834304 -8.12890625 12.41796875 C-7.05640625 12.02609375 -5.98390625 11.63421875 -4.87890625 11.23046875 C-4.97429687 10.60398438 -5.0696875 9.9775 -5.16796875 9.33203125 C-5.27882812 8.51476562 -5.3896875 7.6975 -5.50390625 6.85546875 C-5.61992187 6.04335937 -5.7359375 5.23125 -5.85546875 4.39453125 C-5.86707031 3.32332031 -5.86707031 3.32332031 -5.87890625 2.23046875 C-3.87890625 0.23046875 -3.87890625 0.23046875 0 0 Z M-13.90625 28.4375 C-17.35754097 33.79586128 -19.92759476 39.78411043 -19.87890625 46.23046875 C-18.36465549 52.72511651 -15.944528 60.20464853 -10.20703125 63.99609375 C-2.36561539 67.79369606 -2.36561539 67.79369606 6.12109375 69.23046875 C6.12109375 66.92046875 6.12109375 64.61046875 6.12109375 62.23046875 C5.25097656 61.99263672 5.25097656 61.99263672 4.36328125 61.75 C-1.62730326 59.96073301 -6.56895549 57.94544111 -10.015625 52.40234375 C-11.90326718 47.65334351 -11.72664847 41.90374679 -10.19140625 37.0625 C-8.67710253 34.10329814 -6.91263618 32.25536465 -4.25390625 30.29296875 C0.911499 28.66682265 6.01472246 28.15251155 11.21484375 29.95703125 C15.12067832 31.99269927 17.25507564 34.29109719 19.12109375 38.23046875 C19.61609375 39.22046875 19.61609375 39.22046875 20.12109375 40.23046875 C20.66909306 46.58726077 19.71404104 50.90849221 16.12109375 56.23046875 C13.72108058 58.48502657 12.26333252 59.18305583 9.12109375 60.23046875 C9.45109375 62.21046875 9.78109375 64.19046875 10.12109375 66.23046875 C13.00137402 67.56622303 13.00137402 67.56622303 15.20703125 66.296875 C22.40672592 61.56670018 26.37814108 56.77854711 28.68359375 48.41796875 C29.89182829 41.08951811 26.61773259 35.17029505 23.37109375 28.79296875 C19.16153137 23.99874493 13.42223022 21.83748398 7.18359375 20.95703125 C-0.51679187 20.57784559 -8.56561399 22.62351282 -13.90625 28.4375 Z M0.37109375 40.41796875 C-2.15221033 42.97180596 -2.15221033 42.97180596 -1.87890625 45.85546875 C-0.52826986 49.09032937 -0.52826986 49.09032937 2.12109375 51.23046875 C5.20442708 51.23046875 5.20442708 51.23046875 8.12109375 50.23046875 C10.48248677 47.33584974 10.48248677 47.33584974 9.93359375 43.66796875 C9.47269613 39.97221123 9.47269613 39.97221123 6.12109375 38.23046875 C2.92674041 37.91920697 2.92674041 37.91920697 0.37109375 40.41796875 Z " fill="#131313" transform="translate(167.87890625,126.76953125)"/>
<path d="M0 0 C3.9956327 2.18788345 6.93600179 4.40472369 9.09765625 8.38671875 C10.68362912 13.87662483 10.59004805 18.30229813 8.22265625 23.44921875 C5.885236 27.63846842 3.26092232 30.43680813 -1.40234375 31.94921875 C-10.87435799 32.83033635 -10.87435799 32.83033635 -15.33984375 30.51171875 C-19.1248122 27.32890437 -22.81085769 23.95706454 -23.328125 18.84375 C-23.49872788 12.33390319 -23.19735969 8.35994391 -19.08984375 3.19921875 C-13.40055442 -1.23842693 -6.93856757 -2.65870346 0 0 Z M-10.83984375 11.38671875 C-13.36314783 13.94055596 -13.36314783 13.94055596 -13.08984375 16.82421875 C-11.73920736 20.05907937 -11.73920736 20.05907937 -9.08984375 22.19921875 C-6.00651042 22.19921875 -6.00651042 22.19921875 -3.08984375 21.19921875 C-0.72845073 18.30459974 -0.72845073 18.30459974 -1.27734375 14.63671875 C-1.73824137 10.94096123 -1.73824137 10.94096123 -5.08984375 9.19921875 C-8.28419709 8.88795697 -8.28419709 8.88795697 -10.83984375 11.38671875 Z " fill="#0C0C0C" transform="translate(179.08984375,155.80078125)"/>
<path d="M0 0 C0.99 0.66 1.98 1.32 3 2 C2.27425781 2.39832031 1.54851562 2.79664063 0.80078125 3.20703125 C-2.15924053 5.10194059 -4.36788362 7.16991 -6.8125 9.6875 C-7.99779297 10.89986328 -7.99779297 10.89986328 -9.20703125 12.13671875 C-9.79871094 12.75160156 -10.39039063 13.36648437 -11 14 C-11.33 13.34 -11.66 12.68 -12 12 C-8.27653164 7.57905197 -4.70478962 3.42166518 0 0 Z " fill="#636363" transform="translate(147,134)"/>
<path d="M0 0 C0.66 0.33 1.32 0.66 2 1 C-2.62 5.62 -7.24 10.24 -12 15 C-12 11.11566834 -10.82920314 10.32394504 -8.25 7.5 C-7.55390625 6.7265625 -6.8578125 5.953125 -6.140625 5.15625 C-4.19891408 3.20036601 -2.25069252 1.58156772 0 0 Z " fill="#939393" transform="translate(68,9)"/>
<path d="M0 0 C0.66 2.64 1.32 5.28 2 8 C0.35 8.33 -1.3 8.66 -3 9 C-3.33 6.36 -3.66 3.72 -4 1 C-2 0 -2 0 0 0 Z " fill="#F3F3F3" transform="translate(177,187)"/>
<path d="M0 0 C-1.44077046 3.36179774 -3.24750021 5.59156268 -6 8 C-6.66 8 -7.32 8 -8 8 C-6.48291727 4.46014029 -4.24676932 0 0 0 Z " fill="#818181" transform="translate(20,163)"/>
<path d="M0 0 C0.66 0.33 1.32 0.66 2 1 C-0.31 3.31 -2.62 5.62 -5 8 C-5 5 -5 5 -2.5 2.3125 C-1.675 1.549375 -0.85 0.78625 0 0 Z " fill="#656565" transform="translate(163,157)"/>
</svg>
